Coordinates
version=1
nRows=21
nColumns=12
inDegrees=yes

Units are S.I. units (second, meters, Newtons, ...)
Angles are in degrees

endheader
time	SC_y	SC_z	SC_x	AC_y	AC_z	AC_x	GH_y	GH_z	GH_yy	EL_x	PS_y
       0.0              -27.43          37.87           19.4           32.4          -9.09         -2.297          145.6          85.37         -8.981          95.78           91.6
  0.006459              -27.44          37.86          19.41           32.4         -9.088         -2.296          145.6          85.36         -8.954          95.78          91.59
   0.01292              -27.44          37.86          19.41          32.41         -9.087         -2.296          145.5          85.36         -8.926          95.79          91.58
   0.01938              -27.45          37.85          19.41          32.41         -9.085         -2.295          145.5          85.35         -8.896          95.79          91.57
   0.02584              -27.45          37.85          19.41          32.42         -9.084         -2.294          145.5          85.34         -8.864           95.8          91.56
   0.03229              -27.46          37.84          19.41          32.42         -9.082         -2.293          145.5          85.33          -8.83           95.8          91.54
   0.03875              -27.47          37.83          19.41          32.43          -9.08         -2.292          145.5          85.32         -8.793          95.81          91.53
   0.04521              -27.47          37.83          19.41          32.43         -9.078         -2.291          145.5          85.31         -8.754          95.81          91.51
   0.05167              -27.48          37.82          19.41          32.44         -9.076          -2.29          145.5           85.3         -8.713          95.82           91.5
   0.05813              -27.49          37.81          19.42          32.45         -9.073         -2.289          145.5          85.28         -8.668          95.82          91.48
   0.06459               -27.5           37.8          19.42          32.46         -9.071         -2.288          145.4          85.27          -8.62          95.83          91.46
   0.07105              -27.51          37.79          19.42          32.47         -9.068         -2.286          145.4          85.25         -8.568          95.84          91.44
   0.07751              -27.52          37.78          19.42          32.47         -9.065         -2.285          145.4          85.24         -8.512          95.84          91.41
   0.08396              -27.53          37.77          19.42          32.48         -9.062         -2.283          145.4          85.22         -8.452          95.85          91.39
   0.09042              -27.54          37.76          19.43           32.5         -9.058         -2.282          145.4           85.2         -8.387          95.86          91.36
   0.09688              -27.55          37.74          19.43          32.51         -9.054          -2.28          145.3          85.18         -8.316          95.87          91.34
    0.1033              -27.56          37.73          19.43          32.52          -9.05         -2.278          145.3          85.16          -8.24          95.88           91.3
    0.1098              -27.58          37.71          19.43          32.53         -9.046         -2.276          145.3          85.14         -8.156          95.89          91.27
    0.1163              -27.59           37.7          19.44          32.55         -9.041         -2.273          145.3          85.11         -8.065           95.9          91.23
    0.1227              -27.61          37.68          19.44          32.57         -9.036         -2.271          145.2          85.08         -7.965          95.92          91.19
    0.1292              -27.63          37.66          19.44          32.58          -9.03         -2.268          145.2          85.05         -7.855          95.93          91.15
